<svg id="Layer_1" data-name="Layer 1" xmlns="http://www.w3.org/2000/svg" viewBox="0 0 200 172.15"><defs><style>.cls-1{fill:#1168d3;}</style></defs><title>HQ-Logo</title><path class="cls-1" d="M183.25,111.12,200,133.71H164.43L160.21,128a66.57,66.57,0,0,1-27.07,5.71H81.23V81.07H28.56v52.64H0V0H28.56V52.51H81.23V0h28.56V105.14h22a41.1,41.1,0,0,0,10.29-1.6l-19.31-26.1h35.53l6.95,9.39a37.17,37.17,0,0,0,6.16-20c0-21-17.91-38.29-39.62-38.29H115.62V0h17.52a66.86,66.86,0,0,1,50.11,111.12Z"/><path class="cls-1" d="M0,168.18l3.63-4.33a12.12,12.12,0,0,0,7.63,2.82c1.75,0,2.69-.6,2.69-1.68s-.77-1.51-4-2.25c-5-1.14-8.87-2.55-8.87-7.46,0-4.37,3.46-7.53,9.11-7.53a14.81,14.81,0,0,1,9.68,3.13l-3.26,4.6A11.8,11.8,0,0,0,10,153.16c-1.58,0-2.35.67-2.35,1.58,0,1.08.81,1.55,4.07,2.28,5.41,1.18,8.77,2.92,8.77,7.39,0,4.81-3.8,7.66-9.51,7.66A16.43,16.43,0,0,1,0,168.18Z"/><path class="cls-1" d="M22.88,159.91a12.32,12.32,0,0,1,12.7-12.23c7.26,0,12.63,5.41,12.63,12.23a12.32,12.32,0,0,1-12.7,12.23C28.26,172.15,22.88,166.73,22.88,159.91Zm18.68,0a6.11,6.11,0,0,0-6-6.35c-3.56,0-5.95,2.89-5.95,6.35a6.11,6.11,0,0,0,6,6.35C39.18,166.26,41.56,163.37,41.56,159.91Z"/><path class="cls-1" d="M51.6,148.15H70.42v5.71H58.12v4H69.24v5.41H58.12v8.4H51.6Z"/><path class="cls-1" d="M79.12,153.86H72.06v-5.71H92.7v5.71H85.64v17.81H79.12Z"/><path class="cls-1" d="M94,148.15h6.89l4.1,13.61,4.54-13.68h5.61l4.54,13.68,4.1-13.61h6.75l-7.86,23.69H117l-4.74-13.54-4.7,13.54h-5.68Z"/><path class="cls-1" d="M138.18,148h6.28l10,23.69h-7l-1.71-4.2H136.7l-1.68,4.2h-6.85Zm5.71,14.42-2.62-6.69-2.65,6.69Z"/><path class="cls-1" d="M156.76,148.15h11.12c3.6,0,6.08.94,7.66,2.52a8.06,8.06,0,0,1-2.76,12.8l5.61,8.2h-7.53l-4.74-7.12h-2.86v7.12h-6.52Zm10.82,11.29c2.22,0,3.49-1.08,3.49-2.86s-1.34-2.79-3.53-2.79h-4.27v5.65Z"/><path class="cls-1" d="M180.91,148.15h18.92v5.54H187.36v3.56h11.29v5.14H187.36v3.73H200v5.54H180.91Z"/></svg>